<mxfile host="app.diagrams.net" modified="2024-03-14T15:35:54.698Z" agent="Mozilla/5.0 (Windows NT 10.0; Win64; x64) AppleWebKit/537.36 (KHTML, like Gecko) Chrome/122.0.0.0 Safari/537.36" etag="Tojt50jxGJtnIfGej_qo" version="24.0.6" type="device">
  <diagram name="Page-1" id="C0pB-2nuhrxpLYxTiZ_2">
    <mxGraphModel dx="1523" dy="963" grid="1" gridSize="10" guides="1" tooltips="1" connect="1" arrows="1" fold="1" page="1" pageScale="1" pageWidth="850" pageHeight="1100" math="0" shadow="0">
      <root>
        <mxCell id="0" />
        <mxCell id="1" parent="0" />
        <mxCell id="KAI_ywYx_2HNOmHF93Lu-5" style="edgeStyle=orthogonalEdgeStyle;rounded=0;orthogonalLoop=1;jettySize=auto;html=1;entryX=0.5;entryY=0;entryDx=0;entryDy=0;" edge="1" parent="1" source="KAI_ywYx_2HNOmHF93Lu-1" target="KAI_ywYx_2HNOmHF93Lu-4">
          <mxGeometry relative="1" as="geometry" />
        </mxCell>
        <mxCell id="KAI_ywYx_2HNOmHF93Lu-1" value="&lt;font style=&quot;font-size: 14px;&quot;&gt;START&lt;/font&gt;" style="strokeWidth=2;html=1;shape=mxgraph.flowchart.start_2;whiteSpace=wrap;" vertex="1" parent="1">
          <mxGeometry x="60" y="55" width="100" height="100" as="geometry" />
        </mxCell>
        <mxCell id="KAI_ywYx_2HNOmHF93Lu-2" value="DATABASE" style="strokeWidth=2;html=1;shape=mxgraph.flowchart.database;whiteSpace=wrap;" vertex="1" parent="1">
          <mxGeometry x="750" y="20" width="80" height="80" as="geometry" />
        </mxCell>
        <mxCell id="KAI_ywYx_2HNOmHF93Lu-3" value="&lt;div&gt;Progress Flow&lt;/div&gt;&lt;div&gt;&lt;br&gt;&lt;/div&gt;&lt;div&gt;Group 5: Customer&lt;/div&gt;&lt;div&gt;&lt;br&gt;&lt;/div&gt;&lt;div&gt;&lt;br&gt;&lt;/div&gt;&lt;div&gt;&lt;br&gt;&lt;/div&gt;" style="strokeWidth=2;html=1;shape=mxgraph.flowchart.annotation_1;align=left;pointerEvents=1;" vertex="1" parent="1">
          <mxGeometry x="240" y="10" width="160" height="100" as="geometry" />
        </mxCell>
        <mxCell id="KAI_ywYx_2HNOmHF93Lu-7" style="edgeStyle=orthogonalEdgeStyle;rounded=0;orthogonalLoop=1;jettySize=auto;html=1;entryX=0;entryY=0.5;entryDx=0;entryDy=0;" edge="1" parent="1" source="KAI_ywYx_2HNOmHF93Lu-4" target="KAI_ywYx_2HNOmHF93Lu-6">
          <mxGeometry relative="1" as="geometry" />
        </mxCell>
        <mxCell id="KAI_ywYx_2HNOmHF93Lu-54" style="edgeStyle=orthogonalEdgeStyle;rounded=0;orthogonalLoop=1;jettySize=auto;html=1;" edge="1" parent="1" source="KAI_ywYx_2HNOmHF93Lu-4" target="KAI_ywYx_2HNOmHF93Lu-8">
          <mxGeometry relative="1" as="geometry" />
        </mxCell>
        <mxCell id="KAI_ywYx_2HNOmHF93Lu-4" value="Website / HTML" style="rounded=1;whiteSpace=wrap;html=1;absoluteArcSize=1;arcSize=14;strokeWidth=2;" vertex="1" parent="1">
          <mxGeometry x="60" y="200" width="100" height="40" as="geometry" />
        </mxCell>
        <mxCell id="KAI_ywYx_2HNOmHF93Lu-6" value="CREATE ACCOUNT" style="rounded=1;whiteSpace=wrap;html=1;absoluteArcSize=1;arcSize=14;strokeWidth=2;" vertex="1" parent="1">
          <mxGeometry x="190" y="200" width="100" height="40" as="geometry" />
        </mxCell>
        <mxCell id="KAI_ywYx_2HNOmHF93Lu-81" value="" style="edgeStyle=orthogonalEdgeStyle;rounded=0;orthogonalLoop=1;jettySize=auto;html=1;" edge="1" parent="1" source="KAI_ywYx_2HNOmHF93Lu-8" target="KAI_ywYx_2HNOmHF93Lu-80">
          <mxGeometry relative="1" as="geometry">
            <Array as="points">
              <mxPoint x="110" y="350" />
              <mxPoint x="110" y="350" />
            </Array>
          </mxGeometry>
        </mxCell>
        <mxCell id="KAI_ywYx_2HNOmHF93Lu-8" value="LOGIN" style="rounded=1;whiteSpace=wrap;html=1;absoluteArcSize=1;arcSize=14;strokeWidth=2;" vertex="1" parent="1">
          <mxGeometry x="60" y="280" width="100" height="40" as="geometry" />
        </mxCell>
        <mxCell id="KAI_ywYx_2HNOmHF93Lu-56" style="edgeStyle=orthogonalEdgeStyle;rounded=0;orthogonalLoop=1;jettySize=auto;html=1;entryX=0.499;entryY=0.035;entryDx=0;entryDy=0;entryPerimeter=0;" edge="1" parent="1" source="KAI_ywYx_2HNOmHF93Lu-50" target="KAI_ywYx_2HNOmHF93Lu-65">
          <mxGeometry relative="1" as="geometry">
            <mxPoint x="477.5" y="309.9999999999999" as="targetPoint" />
          </mxGeometry>
        </mxCell>
        <mxCell id="KAI_ywYx_2HNOmHF93Lu-50" value="Check&lt;div&gt;&lt;span style=&quot;background-color: initial;&quot;&gt;if valid for the dabase&lt;/span&gt;&lt;br&gt;&lt;/div&gt;" style="strokeWidth=2;html=1;shape=mxgraph.flowchart.decision;whiteSpace=wrap;" vertex="1" parent="1">
          <mxGeometry x="427.5" y="172.5" width="100" height="95" as="geometry" />
        </mxCell>
        <mxCell id="KAI_ywYx_2HNOmHF93Lu-58" value="DB" style="strokeWidth=2;html=1;shape=mxgraph.flowchart.start_2;whiteSpace=wrap;fillColor=#dae8fc;strokeColor=#6c8ebf;" vertex="1" parent="1">
          <mxGeometry x="527.5" y="80" width="40" height="40" as="geometry" />
        </mxCell>
        <mxCell id="KAI_ywYx_2HNOmHF93Lu-59" style="edgeStyle=orthogonalEdgeStyle;rounded=0;orthogonalLoop=1;jettySize=auto;html=1;entryX=-0.002;entryY=0.534;entryDx=0;entryDy=0;entryPerimeter=0;" edge="1" parent="1" source="KAI_ywYx_2HNOmHF93Lu-50" target="KAI_ywYx_2HNOmHF93Lu-58">
          <mxGeometry relative="1" as="geometry" />
        </mxCell>
        <mxCell id="KAI_ywYx_2HNOmHF93Lu-60" value="Store and Transfer&amp;nbsp;&lt;div&gt;data to connector&lt;/div&gt;" style="edgeLabel;html=1;align=center;verticalAlign=middle;resizable=0;points=[];" vertex="1" connectable="0" parent="KAI_ywYx_2HNOmHF93Lu-59">
          <mxGeometry x="-0.4656" y="2" relative="1" as="geometry">
            <mxPoint as="offset" />
          </mxGeometry>
        </mxCell>
        <mxCell id="KAI_ywYx_2HNOmHF93Lu-62" value="DB" style="strokeWidth=2;html=1;shape=mxgraph.flowchart.start_2;whiteSpace=wrap;fillColor=#dae8fc;strokeColor=#6c8ebf;" vertex="1" parent="1">
          <mxGeometry x="660" y="40" width="40" height="40" as="geometry" />
        </mxCell>
        <mxCell id="KAI_ywYx_2HNOmHF93Lu-63" style="edgeStyle=orthogonalEdgeStyle;rounded=0;orthogonalLoop=1;jettySize=auto;html=1;entryX=0;entryY=0.5;entryDx=0;entryDy=0;entryPerimeter=0;" edge="1" parent="1" source="KAI_ywYx_2HNOmHF93Lu-62" target="KAI_ywYx_2HNOmHF93Lu-2">
          <mxGeometry relative="1" as="geometry" />
        </mxCell>
        <mxCell id="KAI_ywYx_2HNOmHF93Lu-64" style="edgeStyle=orthogonalEdgeStyle;rounded=0;orthogonalLoop=1;jettySize=auto;html=1;entryX=1;entryY=0.5;entryDx=0;entryDy=0;entryPerimeter=0;" edge="1" parent="1" source="KAI_ywYx_2HNOmHF93Lu-2" target="KAI_ywYx_2HNOmHF93Lu-62">
          <mxGeometry relative="1" as="geometry" />
        </mxCell>
        <mxCell id="KAI_ywYx_2HNOmHF93Lu-79" style="edgeStyle=orthogonalEdgeStyle;rounded=0;orthogonalLoop=1;jettySize=auto;html=1;entryX=0.5;entryY=1;entryDx=0;entryDy=0;" edge="1" parent="1" source="KAI_ywYx_2HNOmHF93Lu-65" target="KAI_ywYx_2HNOmHF93Lu-6">
          <mxGeometry relative="1" as="geometry">
            <mxPoint x="380" y="380" as="targetPoint" />
            <Array as="points">
              <mxPoint x="480" y="380" />
              <mxPoint x="240" y="380" />
            </Array>
          </mxGeometry>
        </mxCell>
        <mxCell id="KAI_ywYx_2HNOmHF93Lu-65" value="Display Errors" style="strokeWidth=2;html=1;shape=mxgraph.flowchart.display;whiteSpace=wrap;" vertex="1" parent="1">
          <mxGeometry x="425" y="310" width="105" height="30" as="geometry" />
        </mxCell>
        <mxCell id="KAI_ywYx_2HNOmHF93Lu-76" style="edgeStyle=orthogonalEdgeStyle;rounded=0;orthogonalLoop=1;jettySize=auto;html=1;entryX=0;entryY=0.5;entryDx=0;entryDy=0;entryPerimeter=0;" edge="1" parent="1" source="KAI_ywYx_2HNOmHF93Lu-72" target="KAI_ywYx_2HNOmHF93Lu-65">
          <mxGeometry relative="1" as="geometry">
            <mxPoint x="365" y="320" as="targetPoint" />
            <Array as="points">
              <mxPoint x="365" y="325" />
            </Array>
          </mxGeometry>
        </mxCell>
        <mxCell id="KAI_ywYx_2HNOmHF93Lu-77" value="check If required&amp;nbsp;&lt;div&gt;input are empty&lt;/div&gt;" style="edgeLabel;html=1;align=center;verticalAlign=middle;resizable=0;points=[];" vertex="1" connectable="0" parent="KAI_ywYx_2HNOmHF93Lu-76">
          <mxGeometry x="-0.5868" relative="1" as="geometry">
            <mxPoint as="offset" />
          </mxGeometry>
        </mxCell>
        <mxCell id="KAI_ywYx_2HNOmHF93Lu-72" value="Check Required" style="strokeWidth=2;html=1;shape=mxgraph.flowchart.decision;whiteSpace=wrap;" vertex="1" parent="1">
          <mxGeometry x="330" y="185" width="70" height="70" as="geometry" />
        </mxCell>
        <mxCell id="KAI_ywYx_2HNOmHF93Lu-73" style="edgeStyle=orthogonalEdgeStyle;rounded=0;orthogonalLoop=1;jettySize=auto;html=1;entryX=0;entryY=0.5;entryDx=0;entryDy=0;entryPerimeter=0;" edge="1" parent="1" source="KAI_ywYx_2HNOmHF93Lu-72" target="KAI_ywYx_2HNOmHF93Lu-50">
          <mxGeometry relative="1" as="geometry" />
        </mxCell>
        <mxCell id="KAI_ywYx_2HNOmHF93Lu-74" style="edgeStyle=orthogonalEdgeStyle;rounded=0;orthogonalLoop=1;jettySize=auto;html=1;entryX=0;entryY=0.5;entryDx=0;entryDy=0;entryPerimeter=0;" edge="1" parent="1" source="KAI_ywYx_2HNOmHF93Lu-6" target="KAI_ywYx_2HNOmHF93Lu-72">
          <mxGeometry relative="1" as="geometry" />
        </mxCell>
        <mxCell id="KAI_ywYx_2HNOmHF93Lu-80" value="Check&lt;div&gt;&lt;span style=&quot;background-color: initial;&quot;&gt;if matching the dabase&lt;/span&gt;&lt;br&gt;&lt;/div&gt;" style="strokeWidth=2;html=1;shape=mxgraph.flowchart.decision;whiteSpace=wrap;" vertex="1" parent="1">
          <mxGeometry x="60" y="360" width="100" height="95" as="geometry" />
        </mxCell>
        <mxCell id="KAI_ywYx_2HNOmHF93Lu-82" value="&lt;font style=&quot;font-size: 11px;&quot;&gt;Example:&lt;/font&gt;&lt;div style=&quot;font-size: 11px;&quot;&gt;&lt;font style=&quot;font-size: 11px;&quot;&gt;Maxminum input is 12 but is 13&lt;/font&gt;&lt;/div&gt;" style="strokeWidth=2;html=1;shape=mxgraph.flowchart.annotation_1;align=left;pointerEvents=1;" vertex="1" parent="1">
          <mxGeometry x="530" y="172.5" width="172.5" height="30" as="geometry" />
        </mxCell>
      </root>
    </mxGraphModel>
  </diagram>
</mxfile>
